<svg xmlns="http://www.w3.org/2000/svg" viewBox="0 0 225 225"><defs><style>.cls-1{fill:#fdfdfd;}.cls-2{fill:#030303;}.cls-3{fill:#78b715;}</style></defs><g id="Layer_2" data-name="Layer 2"><g id="Layer_1-2" data-name="Layer 1"><path class="cls-1" d="M112.45,224.93q-54.21,0-108.41,0c-2.71,0-4,0-4-3.61Q.21,112.45,0,3.53C0,.38.85,0,3.66,0Q112.57.15,221.47,0c3.15,0,3.51.84,3.5,3.65q-.12,108.93,0,217.84c0,3.15-.84,3.52-3.65,3.51C185.05,224.89,148.75,224.93,112.45,224.93ZM201.54,139a95.85,95.85,0,0,0,3.65-41.36C198.35,46.32,150.67,9.91,99.72,17.24,48.28,24.65,13.22,71,19.89,122.69c7,53.84,59,90.27,112.47,78.74,5.28,4.06,9.57,9.14,14.27,13.8,1.8,1.79,2.82,2,4.73.08q30.34-30.56,60.88-60.93c1.7-1.68,1.83-2.65.07-4.34C208.6,146.49,205.11,142.71,201.54,139Z"/><path class="cls-2" d="M132.36,201.42C78.89,213,26.84,176.53,19.89,122.69,13.22,71,48.28,24.65,99.72,17.24c50.95-7.33,98.63,29.08,105.47,80.42A95.85,95.85,0,0,1,201.54,139l-6.06-6.16a107.89,107.89,0,0,0,2.5-14.2,5.87,5.87,0,0,0-2.43-5.48c-6.77-5.63-13.51-11.29-20.1-17.12-1.38-1.23-2.27-.63-3.53-.28-8.28,2.33-16.55,4.67-24.88,6.82a4.58,4.58,0,0,0-3.69,3.28c-3.6,10.1-5.65,20.76-10.84,30.28-.69,1.26.24,1.86.71,2.59,4.26,6.72,8.59,13.39,12.87,20.1a2.71,2.71,0,0,0,3,1.58c5.95-.42,11.94-.26,17.91-.32-3.67,3.81-7.29,7.68-11,11.44-7.39,7.46-7.41,7.44-14.36-.7.05-3.29,3.64-6,1.15-9.79-4.49-6.76-8.79-13.66-13.11-20.54a4.55,4.55,0,0,0-4.41-2.44q-13.22.21-26.45,0a4.77,4.77,0,0,0-4.53,2.3q-7.19,10.76-14.47,21.46c-.67,1-1.28,1.82-.67,3.15,3.75,8.13,5.69,16.9,8.66,25.31A4.39,4.39,0,0,0,91,193.56a80.94,80.94,0,0,0,35,1.36A31,31,0,0,1,132.36,201.42ZM115,62.48c0,3.49.19,7-.06,10.48-.22,3.1.73,4.93,3.46,6.78,8.09,5.5,16,11.34,23.64,17.44,1.83,1.46,3,1.91,5.13,1.28,7.95-2.29,16-4.36,23.94-6.57,1.72-.47,3.11-1,3.89-3.2,2.64-7.48,5.69-14.82,8.69-22.18a5.25,5.25,0,0,0-.58-5.82A88,88,0,0,0,145,30.42c-2.39-1-4.18-1-6.27.71-4,3.2-8,6.56-12.48,9.08C117.41,45.23,111.81,51.53,115,62.48Zm-4.85,2.4c0-5.82,0-9.81,0-13.8,0-1.44.23-2.8-1.38-3.92Q96.91,39,85.27,30.45c-1.76-1.29-3.12-1.08-5-.34A86.42,86.42,0,0,0,43.69,58.25c-1.8,2.34-1.77,4.19-.7,6.74,3.2,7.61,6.28,15.28,9.13,23a4.34,4.34,0,0,0,3.44,3c7.61,2.2,15.19,4.53,22.81,6.73,1.32.38,2.46.75,4-.53,5.37-4.41,10.76-9,16.73-12.44C107.72,79.75,113.41,73.82,110.16,64.88Zm-50.7,96.29v0c4.48,0,9-.16,13.45.08a3.55,3.55,0,0,0,3.68-1.73c4.78-7.17,9.62-14.3,14.44-21.44a2.67,2.67,0,0,0,.31-3.08c-4.34-9.67-7.17-19.89-10.28-30-.6-1.91-1.29-2.62-3.1-3.13-7.47-2.12-14.87-4.47-22.33-6.63-1.28-.37-2.45-.93-4,.45-7.31,6.51-14.82,12.8-22.4,19a5.5,5.5,0,0,0-2.2,5.51c1.12,11.57,5.22,22.08,10.4,32.39,3.29,6.57,7.53,10,15.07,8.62C54.74,160.83,57.13,161.17,59.46,161.17Z"/><path class="cls-3" d="M141.64,170.85c7,8.14,7,8.16,14.36.7,3.73-3.76,7.35-7.63,11-11.44,2.29-2.11,4.61-4.2,6.88-6.33,7.3-6.86,13.74-14.61,21.58-20.92l6.06,6.16c3.57,3.69,7.06,7.47,10.77,11,1.76,1.69,1.63,2.66-.07,4.34q-30.53,30.38-60.88,60.93c-1.91,1.93-2.93,1.71-4.73-.08-4.7-4.66-9-9.74-14.27-13.8a30.77,30.77,0,0,0-6.28-6.51c-5.46-5.56-10.84-11.2-16.4-16.66-1.83-1.79-2-2.9-.06-4.75q7.6-7.22,14.81-14.82c1.83-1.92,2.92-1.88,4.74,0C133.2,162.86,137.47,166.81,141.64,170.85Z"/></g></g></svg>