<svg xmlns="http://www.w3.org/2000/svg" viewBox="0 0 225 225"><defs><style>.cls-1{fill:#fdfdfd;}.cls-2{fill:#040404;}.cls-3{fill:#ec1c24;}</style></defs><g id="Layer_2" data-name="Layer 2"><g id="Layer_1-2" data-name="Layer 1"><path class="cls-1" d="M224.92,112.5c0,36.31,0,72.61.08,108.92,0,3-.6,3.58-3.58,3.58q-108.91-.17-217.84,0c-3,0-3.58-.6-3.58-3.58Q.17,112.51,0,3.58C0,.6.6,0,3.58,0Q112.49.17,221.42,0c3,0,3.59.6,3.58,3.58C224.87,39.89,224.92,76.19,224.92,112.5Zm-28.64,18.86c4.74-13.42,5.65-27.15,3.88-41.23C193.58,37.83,143.1.72,91.31,10.25c-54.42,10-88.39,63.1-74.18,116.51,13.5,50.71,64.26,77.77,110.54,67,4.77,4.61,9.59,9.17,14.26,13.88,1.8,1.8,2.46,1.86,4.4-.32,5.62-6.31,11.87-12.07,17.77-18.15,2.21-2.27,3.73-1.68,5.7.36,5.88,6.09,11.94,12,17.91,18,1.24,1.25,2.22,2.39,4,.53,5.31-5.49,10.77-10.85,16.16-16.27.83-.84,1.33-1.11-.14-2.44-6.15-5.56-11.77-11.71-17.89-17.32-3.37-3.09-3.39-5.42-.13-8.51,5.54-5.26,10.76-10.86,16.29-16.14,2-1.92,2.13-3,.08-5.1C202.64,138.89,198.47,136,196.28,131.36Z"/><path class="cls-2" d="M127.67,193.8c-46.28,10.73-97-16.33-110.54-67C2.92,73.35,36.89,20.26,91.31,10.25,143.1.72,193.58,37.83,200.16,90.13c1.77,14.08.86,27.81-3.88,41.22l-6.06-5.82A74.8,74.8,0,0,0,193,111.38c.31-2.57-.5-4.22-2.61-5.87-6.4-5-12.73-10.17-18.74-15.66-1.92-1.75-3.34-2.08-5.62-1.42-7.79,2.26-15.58,4.56-23.45,6.47-2.71.66-3.74,2-4.49,4.44-2.57,8.2-4.54,16.72-8.24,24.39-2.76,5.72-1.25,9.33,2.23,13.3a7.53,7.53,0,0,1-3.05,3c-1.44-2.22-2.94-4.4-4.3-6.67a4.85,4.85,0,0,0-4.78-2.68c-8.8.16-17.6.09-26.4,0A4.66,4.66,0,0,0,89,132.94c-4.62,7.07-9.42,14-14.14,21-.79,1.17-1.53,2.06-.81,3.89,2.3,5.82,4.93,11.67,6,17.77,1.66,9.32,7.41,11.58,15.77,12.55,10.56,1.21,20.82,0,31.16-1.36C125.91,189.25,124.48,191.75,127.67,193.8ZM137.36,22c-1.84-.09-2.66,1.11-3.71,1.86-7.13,5.13-14.16,10.42-21.46,15.31a4.83,4.83,0,0,0-2.53,4.7c.09,7.48.13,15,0,22.44-.05,2.42.78,3.75,2.75,5.22C121,78,130.47,83.3,138.16,90.92c1.38,1.37,2.46.4,3.6.08,8.3-2.25,16.55-4.66,24.87-6.84a4.2,4.2,0,0,0,3.39-3c2.79-7.59,5.78-15.12,8.9-22.58,1-2.28.65-3.84-.78-5.82A86,86,0,0,0,139.86,22.9C138.94,22.53,138,22.24,137.36,22ZM105,57.31c0-6,0-10,0-13.94,0-1.41.05-2.49-1.62-3.63C95.69,34.53,88.25,29,80.8,23.44a5.27,5.27,0,0,0-5.87-.78A85.08,85.08,0,0,0,38.48,51c-1.62,2.17-1.67,3.87-.62,6.32,3.19,7.43,6.21,14.94,9,22.54a5.31,5.31,0,0,0,4,3.72q11.45,3.28,22.82,6.77c1.49.46,2.47.75,4-.47C82.89,85.55,88.07,81,93.87,77.57,102.56,72.38,108.18,66.21,105,57.31ZM54.09,153.88c4.33,0,8.66-.1,13,.05a4.09,4.09,0,0,0,4-2.11c4.66-7.06,9.48-14,14.21-21,.67-1,1.43-1.75.67-3.43-4.34-9.49-6.88-19.62-10-29.55-.62-2-1.27-3.13-3.28-3.7-7.47-2.14-14.9-4.4-22.36-6.6-1.2-.35-2.26-1-3.56.33-6.93,7.2-15.08,13-22.65,19.49a5.65,5.65,0,0,0-2.09,5.57c1.22,11.38,5.15,21.81,10.26,32,3.43,6.84,7.82,10.62,15.8,9C50,153.55,52.09,153.88,54.09,153.88Z"/><path class="cls-3" d="M190.22,125.53l6.06,5.82c2.19,4.64,6.36,7.54,9.82,11,2.05,2.06,1.92,3.18-.08,5.1-5.53,5.28-10.75,10.88-16.29,16.14-3.26,3.09-3.24,5.42.13,8.51,6.12,5.61,11.74,11.76,17.89,17.32,1.47,1.33,1,1.6.14,2.44-5.39,5.42-10.85,10.78-16.16,16.27-1.8,1.86-2.78.72-4-.53-6-6-12-12-17.91-18-2-2-3.49-2.63-5.7-.36-5.9,6.08-12.15,11.84-17.77,18.15-1.94,2.18-2.6,2.12-4.4.32-4.67-4.71-9.49-9.27-14.26-13.88-3.19-2.05-1.76-4.55-.69-7l-.08.11c1.06.33,1.67-.19,2.09-1.09l-.08.18,1.1-1.15-.15.11c3.12-3,6.27-5.93,9.33-9,8.69-8.63,8.67-8.65-.27-17.05a3.92,3.92,0,0,0-.86-.46c-2.26-3.48-5.41-6.19-8.45-8.88-3.64-3.2-5.62-6-.63-9.55a7.53,7.53,0,0,0,3.05-3c3.09-3,6.36-5.78,9.2-9,2-2.25,3.12-1.83,5,.12,5.37,5.64,11.11,10.94,16.39,16.66,2.86,3.1,4.71,3.51,7.85.16C176.77,138.26,183.6,132,190.22,125.53Z"/><path class="cls-1" d="M137.36,22c.64.23,1.58.52,2.5.89a86,86,0,0,1,38.28,29.87c1.43,2,1.74,3.54.78,5.82-3.12,7.46-6.11,15-8.9,22.58a4.2,4.2,0,0,1-3.39,3c-8.32,2.18-16.57,4.59-24.87,6.84-1.14.32-2.22,1.29-3.6-.08C130.47,83.3,121,78,112.4,71.54c-2-1.47-2.8-2.8-2.75-5.22.14-7.48.1-15,0-22.44a4.83,4.83,0,0,1,2.53-4.7c7.3-4.89,14.33-10.18,21.46-15.31C134.7,23.12,135.52,21.92,137.36,22Z"/><path class="cls-2" d="M129.86,185c1.77-9.13,5.25-17.73,8.2-26.49a3.92,3.92,0,0,1,.86.46c8.94,8.4,9,8.42.27,17.05C136.13,179,133,182,129.86,185Z"/><path class="cls-2" d="M128.91,186c.23-.51.1-1.37,1.1-1.15Z"/></g></g></svg>