<svg width="24" height="34" viewBox="0 0 24 34" fill="none" xmlns="http://www.w3.org/2000/svg">
<path d="M24 34H0V0H0.735937H24V34ZM15.3098 32.5153V28.8811H7.50946V32.5153H15.3098ZM7.72356 17.742C7.87746 18.6538 8.30651 19.4687 8.92911 20.0971C9.71688 20.8909 10.7983 21.3798 12 21.38C13.2021 21.3798 14.2831 20.8909 15.0713 20.0971C15.6939 19.4686 16.1225 18.6538 16.2769 17.742H7.72356ZM12 22.8647C9.03764 22.8645 6.59808 20.63 6.23548 17.742H1.47286V32.5153H6.03712V27.3964H16.7822V32.5153H22.5276V17.7422L17.7644 17.742C17.4009 20.6303 14.9624 22.8645 12 22.8647ZM7.50946 1.48465V5.11879H15.3098V1.48465H7.50946ZM16.7822 1.48465V6.60377H6.03712V1.48465H1.47286V16.2572L6.23548 16.2575C6.59855 13.3694 9.03764 11.1355 12 11.1349C14.9624 11.1355 17.4008 13.3696 17.7645 16.2575L22.5277 16.2578V1.48465H16.7822ZM7.72356 16.2575H16.2769C16.1225 15.3456 15.6939 14.5311 15.0713 13.9028C14.2831 13.1089 13.2021 12.6201 12 12.6199C10.7983 12.6202 9.71688 13.1089 8.92911 13.9028C8.30651 14.5311 7.87799 15.3457 7.72356 16.2575Z" fill="#7ABF74"/>
</svg>
