<svg xmlns="http://www.w3.org/2000/svg" viewBox="0 0 326.01 465.31"><defs><style>.cls-1{fill:#fa4350;}.cls-2{fill:#f72349;}</style></defs><g id="Layer_2" data-name="Layer 2"><g id="Layer_1-2" data-name="Layer 1"><path class="cls-1" d="M0,435.92v-407c1.61-4.48,2.7-9.13,5.17-13.31C10.55,6.51,19.26,2.59,28.89,0H270c6.34,2.8,12.85,5.27,17.37,11,5.5,7,7.48,15.07,7.5,23.72q.09,51.06,0,102.14,0,145.74,0,291.49c0,9.26-1.57,18.1-7.9,25.53-4.86,5.71-11.49,8.18-18.11,10.77-19.06.12-38.11.28-57.16.32-8.45,0-16.89-.22-25.34-.34l-1.22-.8c-3.3-.15-6.61-.42-9.92-.43q-72.12,0-144.25,0A29.06,29.06,0,0,1,8.82,454C3.91,448.81,2.13,442.33,0,435.92Z"/><path class="cls-2" d="M268.84,464.69c6.62-2.59,13.25-5.06,18.11-10.77,6.33-7.43,7.9-16.27,7.9-25.53q.07-145.74,0-291.49,0-51.08,0-102.14c0-8.65-2-16.72-7.5-23.72-4.52-5.77-11-8.24-17.37-11h30.88c.86,1.7,2.65,1.73,4.13,2.37,11,4.76,18.38,12.92,19.46,25,.82,9.19,1.46,18.5,1.47,27.75Q326.1,241.51,326,428c0,1.49,0,3,0,4.48-.33,15.62-10.64,28.48-25.93,31.63C289.75,466.17,279.26,465.05,268.84,464.69Z"/></g></g></svg>