<svg xmlns="http://www.w3.org/2000/svg" viewBox="0 0 384 384"><defs><style>.cls-1{fill:#f5d66f;}.cls-2{fill:#f94350;}.cls-3{fill:#f8ba69;}.cls-4{fill:#f62349;}.cls-5{fill:#fefefe;}</style></defs><g id="Layer_2" data-name="Layer 2"><g id="Layer_1-2" data-name="Layer 1"><path class="cls-1" d="M18.06.07H202.49c7.66.4,13.57,3.76,17.44,10.44a30.11,30.11,0,0,1,3.61,12.85c.13,1.62.07,3.25.07,4.87q0,146.63,0,293.25c0,6.77-1,13.12-4.86,18.88a20.33,20.33,0,0,1-17.39,9.35c-16.6.24-33.21.09-49.81.06a76.94,76.94,0,0,0-12.69.72,19.58,19.58,0,0,1-5.18.54q-54,0-108.09,0a29.51,29.51,0,0,1-19.28-6.89c-4.09-3.33-5.29-7.94-6.28-12.72V18.06C.89,13.33,2.52,9.13,6.12,5.59,9.55,2.22,13.66,1,18.06.07Z"/><path class="cls-2" d="M341.94,383.89H157.51c-8.84-.67-14.38-5.71-17.83-13.5a16.55,16.55,0,0,1-1.65-8.64c.55-2.73.31-5.49.37-8.23.1-4.18.39-4.48,4.51-4.48,18.86,0,37.72.25,56.58-.12a225.58,225.58,0,0,0,25.68-2c9.37-1.26,16.44-8.91,17.74-18.26a85.43,85.43,0,0,0,.68-11.95q0-135.45,0-270.9c0-13.44-.17-11.62,11.84-11.65q35.78-.09,71.57,0a53.08,53.08,0,0,0,10.38-1.17c7-.23,14.09-.15,21.14-.07,1.8,0,3.84-.2,4.59,2.18A3.28,3.28,0,0,1,360,36.82c-3.74.09-7.49.43-9.91-.12,6.88,3.69,11.27,10.27,12.16,19.24.17,1.74.09,3.5.09,5.25V357.83c0,3.75.1,7.5-1.32,11.07C357.55,377.59,351.62,383.12,341.94,383.89Z"/><path class="cls-3" d="M337.25,34.75c-1.42.74-2.95.41-4.42.41q-41.41,0-82.83,0c-4.91,0-4.92,0-4.92,4.93q0,141.09,0,282.17c0,8.94-2.16,16.79-9.73,22.39-4.85,3.59-10.41,4.63-16.27,4.64-25.1,0-50.21.1-75.32,0-3.45,0-4.68,1-4.39,4.42a89.52,89.52,0,0,1-.08,9,1.31,1.31,0,0,1-1.45-.93c-.81-4.23-1.82-8.5.9-12.48,1.23-.85,2.64-.61,4-.61,18.49,0,37-.33,55.46.11,14,.33,23-10.15,23.74-23.15.08-1.25,0-2.5,0-3.75q0-146.13.07-292.27c0-13.68-3.25-24.79-19.56-29.52h24c10,.79,15.71,6.73,18.76,15.69a36.59,36.59,0,0,1,1.6,11.42c.08,5.46.35,5.75,5.73,5.75,26.2,0,52.4,0,78.6,0C333.29,33,335.77,32.28,337.25,34.75Z"/><path class="cls-4" d="M341.94,383.89c4.46-1.87,8.9-3.63,12.37-7.36A22,22,0,0,0,360.67,361q0-151.5,0-303a22.67,22.67,0,0,0-14.94-21.62,1.71,1.71,0,0,1-1.14-1.26h18.54c1.44-1.57,3.17-1.07,4.85-.64a20.47,20.47,0,0,1,15.56,17.76c.07.61-.09,1.25.38,1.76v311.1c-.74,4.85-2.06,9.25-5.76,13-3.91,4-8.61,5.15-13.73,5.75Z"/><path class="cls-5" d="M383.92,54.05c-1.52-4.16-2.86-8.41-6.09-11.7-4.05-4.14-8.74-6.94-14.7-7.18-8.61-1-17.25-.32-25.88-.42-11.47-.06-22.95-.15-34.42-.17-18,0-35.93-.08-53.89.06-3.11,0-4.23-.87-4-4a52.5,52.5,0,0,0-.14-8.22c-.89-11-6.57-18.26-17.16-21.59a5.43,5.43,0,0,1-1.18-.77Q303.7.07,380.92,0c2.57,0,3.1.5,3.08,3.07C383.85,20.06,383.92,37.06,383.92,54.05Z"/><path class="cls-5" d="M138.76,349.26c.44,4.46-.52,9,.56,13.42.94,9.79,6.22,16.24,15.23,19.87,1,.4,2.28.23,3,1.34q-76.89,0-153.79.11C.3,384,0,383,0,380.06c.14-16.21.07-32.43.07-48.64.8.33.91,1.14,1.19,1.81,4.38,10.68,12.13,16,23.69,16Q81.86,349.32,138.76,349.26Z"/></g></g></svg>