<svg width="71" height="46" viewBox="0 0 71 46" fill="none" xmlns="http://www.w3.org/2000/svg">
<g clip-path="url(#clip0_102_14)">
<path d="M0 0V2.00788V42.2893H21.586V45.6879C21.586 45.8607 21.7249 46 21.8978 46H50.5354C50.7083 46 50.8475 45.8607 50.8475 45.6879V42.2893H70.1032V0H0ZM4.01704 4.01575H66.0862V38.2722H4.01704V4.01575Z" fill="#555555"/>
<path d="M46.7798 11.0604V30.6565H51.6061V23.9754H52.7728L57.0856 30.8618L62.3798 30.0129L57.5448 22.8447C59.4672 21.8526 61.2169 20.1689 61.2169 17.6423C61.2169 12.7232 58.0361 11.0604 54.0284 11.0604H46.7798ZM53.345 14.8248C53.9333 14.838 56.3493 14.9891 56.3493 17.5607C56.3493 20.4997 53.2127 20.2966 53.2127 20.2966H51.6061V14.8251L53.345 14.8248Z" fill="#555555"/>
<path d="M32.3078 11.0787L25.1338 30.8618H30.0222L31.28 26.8328H38.0212L39.3646 31.0484L44.431 30.2363L37.5524 11.0787H32.3078ZM34.6162 16.148L36.8014 23.0053H32.4751L34.6162 16.148Z" fill="#555555"/>
<path d="M13.6901 11.0787L8.31226 11.9408L15.1728 31.0484H20.4174L27.5914 11.2654H22.3735L18.1058 24.935L13.6901 11.0787Z" fill="#555555"/>
</g>
<defs>
<clipPath id="clip0_102_14">
<rect width="70.1032" height="46" fill="white"/>
</clipPath>
</defs>
</svg>
