<svg id="Layer_1" data-name="Layer 1" xmlns="http://www.w3.org/2000/svg" viewBox="0 0 326.01 465.31"><defs><style>.cls-1{fill:#f5d66f;}.cls-2{fill:#f8bb6b;}</style></defs><path class="cls-1" d="M901.29,649.15v-407c1.6-4.48,2.7-9.14,5.16-13.31,5.38-9.11,14.1-13,23.73-15.62h241.09c6.35,2.8,12.85,5.27,17.38,11,5.49,7,7.48,15.07,7.49,23.71q.09,51.07,0,102.15,0,145.74,0,291.49c0,9.26-1.57,18.1-7.9,25.53-4.86,5.71-11.49,8.18-18.12,10.77-19,.12-38.1.28-57.16.32-8.44,0-16.89-.22-25.33-.34l-1.22-.8c-3.31-.15-6.61-.42-9.92-.43q-72.12,0-144.25,0a29,29,0,0,1-22.13-9.46C905.19,662,903.41,655.56,901.29,649.15Z" transform="translate(-901.29 -213.23)"/><path class="cls-2" d="M1170.12,677.92c6.63-2.59,13.26-5.06,18.12-10.77,6.33-7.43,7.9-16.27,7.9-25.53q.08-145.74,0-291.49,0-51.08,0-102.15c0-8.64-2-16.71-7.49-23.71-4.53-5.77-11-8.24-17.38-11h30.89c.86,1.7,2.64,1.73,4.13,2.37,11,4.76,18.37,12.92,19.45,25,.83,9.19,1.47,18.5,1.47,27.75q.18,186.43.08,372.88c0,1.49,0,3,0,4.48-.33,15.62-10.64,28.48-25.94,31.63C1191,679.4,1180.55,678.28,1170.12,677.92Z" transform="translate(-901.29 -213.23)"/></svg>