<svg id="Layer_1" data-name="Layer 1" xmlns="http://www.w3.org/2000/svg" viewBox="0 0 289.31 43.48"><defs><style>.cls-1{fill:#7bbf74;}.cls-2{fill:#555;}</style></defs><path class="cls-1" d="M205.08,303.44a28,28,0,0,1-5.85-.59,21.36,21.36,0,0,1-9.59-4.68l3.72-4.57a16.89,16.89,0,0,0,5.36,3.16,18.69,18.69,0,0,0,6.36,1.05,12.71,12.71,0,0,0,7.17-1.72,5.54,5.54,0,0,0,2.55-4.84v0a5,5,0,0,0-1.29-3.72,7.86,7.86,0,0,0-3.38-1.92,38,38,0,0,0-4.59-1c-1.6-.27-3.21-.59-4.84-1a16.09,16.09,0,0,1-4.5-1.75,8.81,8.81,0,0,1-3.3-3.41,12.19,12.19,0,0,1-1.24-5.95v0q0-5.94,4-9.21T206.78,260a21,21,0,0,1,6.7,1.1,23.41,23.41,0,0,1,6.39,3.36l-3.4,4.74a18.68,18.68,0,0,0-4.85-2.69,14,14,0,0,0-4.84-.88,11.46,11.46,0,0,0-6.79,1.74,5.73,5.73,0,0,0-2.41,4.94v0A4.65,4.65,0,0,0,199,276a8.82,8.82,0,0,0,3.68,1.86c1.51.4,3.14.78,4.88,1.13,1.56.31,3.12.69,4.68,1.13a15.15,15.15,0,0,1,4.27,1.9,9.06,9.06,0,0,1,3.07,3.41,12,12,0,0,1,1.16,5.66v.06a10.93,10.93,0,0,1-4.1,9.11Q212.51,303.45,205.08,303.44Z" transform="translate(-189.64 -259.96)"/><path class="cls-1" d="M239.45,303.44q-6,0-9.26-3.47t-3.28-9.77v-4.95q0-6.24,3.28-9.67t9.26-3.43q6,0,9.26,3.43t3.28,9.67v5q0,6.25-3.28,9.71T239.45,303.44Zm0-5.68a6.09,6.09,0,0,0,4.85-2,8.1,8.1,0,0,0,1.71-5.5v-5a8,8,0,0,0-1.71-5.48,7,7,0,0,0-9.68,0,7.9,7.9,0,0,0-1.73,5.48v5a8,8,0,0,0,1.73,5.5A6.09,6.09,0,0,0,239.45,297.76Z" transform="translate(-189.64 -259.96)"/><path class="cls-1" d="M271.92,303.44q-6.27,0-9.71-3.46t-3.44-9.75v-5q0-6.24,3.44-9.66t9.71-3.41a15.93,15.93,0,0,1,6.45,1.26,11,11,0,0,1,4.57,3.6l-4.31,3.87a8.69,8.69,0,0,0-6.62-3.05,7.17,7.17,0,0,0-5.36,1.94,7.43,7.43,0,0,0-1.91,5.45v5a7.66,7.66,0,0,0,1.91,5.56,7.11,7.11,0,0,0,5.36,2,8.2,8.2,0,0,0,3.63-.85,8.88,8.88,0,0,0,3-2.41l4.31,4.16a11,11,0,0,1-4.59,3.53A16.07,16.07,0,0,1,271.92,303.44Z" transform="translate(-189.64 -259.96)"/><path class="cls-1" d="M301,303.44q-6.27,0-9.71-3.46t-3.44-9.75v-5q0-6.24,3.44-9.66t9.71-3.41a15.86,15.86,0,0,1,6.45,1.26A11,11,0,0,1,312,277l-4.31,3.87a8.64,8.64,0,0,0-3-2.26,8.8,8.8,0,0,0-3.64-.79,7.19,7.19,0,0,0-5.36,1.94,7.42,7.42,0,0,0-1.9,5.45v5a7.65,7.65,0,0,0,1.9,5.56,7.13,7.13,0,0,0,5.36,2,8.27,8.27,0,0,0,3.64-.85,8.84,8.84,0,0,0,3-2.41l4.31,4.16a10.91,10.91,0,0,1-4.59,3.53A16,16,0,0,1,301,303.44Z" transform="translate(-189.64 -259.96)"/><path class="cls-1" d="M330.18,303.44q-6.36,0-9.84-3.55t-3.49-10.07v-3.43q0-6.79,3.36-10.52t9.45-3.72a10.46,10.46,0,0,1,8.89,4.22q3.15,4.22,3.15,11.84v2H321.19v-4.81H336a10.18,10.18,0,0,0-1.92-5.77,5.36,5.36,0,0,0-4.43-2.08,6.47,6.47,0,0,0-5.25,2.23,9.49,9.49,0,0,0-1.87,6.3v3.86a7.9,7.9,0,0,0,2,5.8,7.59,7.59,0,0,0,5.64,2,9.48,9.48,0,0,0,3.61-.74,10.25,10.25,0,0,0,3.19-2l3.93,3.93a16.75,16.75,0,0,1-5.07,3.35A14.49,14.49,0,0,1,330.18,303.44Z" transform="translate(-189.64 -259.96)"/><path class="cls-1" d="M349.06,303V272.59h6V303Zm16.73-23.2a5,5,0,0,0-2-1.47,7.27,7.27,0,0,0-2.79-.5,6,6,0,0,0-4.41,1.57,5.91,5.91,0,0,0-1.56,4.35l-.62-5.86a11.11,11.11,0,0,1,3.62-4.22,8.63,8.63,0,0,1,4.94-1.52,11.15,11.15,0,0,1,3.76.6,8.44,8.44,0,0,1,2.94,1.77Z" transform="translate(-189.64 -259.96)"/><path class="cls-2" d="M395.66,260.4V303h-6V260.4Z" transform="translate(-189.64 -259.96)"/><path class="cls-2" d="M404.78,303V272.59h6V303Zm18.46,0V284.57a7,7,0,0,0-1.66-5,7.24,7.24,0,0,0-9.22-.2,5.78,5.78,0,0,0-1.6,4.36l-.62-5.86a11,11,0,0,1,3.68-4.25,9,9,0,0,1,5-1.49,9.44,9.44,0,0,1,7.67,3.24c1.8,2.16,2.71,5.21,2.71,9.15V303Z" transform="translate(-189.64 -259.96)"/><path class="cls-2" d="M435.11,277.69v-5.1h15.21v5.1ZM438.34,303V268.46q0-4,1.84-6c1.23-1.34,3.15-2,5.74-2h4.4v5.69H446a1.45,1.45,0,0,0-1.32.68,3.18,3.18,0,0,0-.41,1.63V303Z" transform="translate(-189.64 -259.96)"/><path class="cls-2" d="M466.41,303.44q-6,0-9.26-3.47t-3.28-9.77v-4.95q0-6.24,3.28-9.67t9.26-3.43q6,0,9.26,3.43t3.28,9.67v5q0,6.25-3.28,9.71T466.41,303.44Zm0-5.68a6.09,6.09,0,0,0,4.85-2,8.1,8.1,0,0,0,1.71-5.5v-5a8,8,0,0,0-1.71-5.48,7,7,0,0,0-9.68,0,8,8,0,0,0-1.73,5.48v5a8.06,8.06,0,0,0,1.73,5.5A6.09,6.09,0,0,0,466.41,297.76Z" transform="translate(-189.64 -259.96)"/></svg>